<svg width="24" height="24" viewBox="0 0 24 24" fill="none" xmlns="http://www.w3.org/2000/svg">
            <path fill-rule="evenodd" clip-rule="evenodd" d="M0.0693359 8.31653H1.4888V20.5132H0.0693359V21.0915H5.48414V20.5132H3.96V12.68C3.94845 12.08 4.02821 11.4817 4.19654 10.9057C4.32856 10.457 4.53723 10.0346 4.81334 9.65706C5.03483 9.35301 5.32565 9.10617 5.66166 8.93703C5.99767 8.76789 6.36917 8.68133 6.74534 8.68453C7.35867 8.68453 7.81867 8.87293 8.12534 9.24973C8.432 9.62653 8.58534 10.3056 8.58534 11.2869V20.5136H7.06134V21.0919H12.4761V20.5136H11.0568V11.6021C11.0723 10.9872 10.9834 10.374 10.794 9.7888C10.6439 9.33885 10.392 8.92958 10.058 8.5928C9.74389 8.28705 9.36065 8.06161 8.9408 7.9356C8.47573 7.79914 7.99292 7.73267 7.50827 7.7384C6.5792 7.7384 5.80814 7.96622 5.19507 8.42187C4.6283 8.82616 4.1535 9.3458 3.80187 9.94666H3.74934V7.73813H0.0693359V8.3164V8.31653ZM17.2861 21.0915V20.5132H15.6039V14.0999H15.6564L20.4929 21.0919H23.7524V20.5136H23.0164L18.1536 12.6533L22.5959 8.31627H23.8576V7.73813H20.0724V8.3164H21.7547L15.6039 13.8891V2.9016H11.7136V3.48H13.1333V20.5131H11.7136V21.0913H17.2861V21.0915Z" fill="currentColor"></path>
          </svg>