<svg width="24" height="24" viewBox="0 0 48 48" fill="none" xmlns="http://www.w3.org/2000/svg">
        <path d="M1.40123 27.3686C-0.44103 25.5284 -0.441033 22.5449 1.4012 20.7047L16.5971 5.52573L24.0098 12.9301L5.47818 31.4409L1.40123 27.3686Z" fill="#FF4E74"></path>
        <path d="M35.1286 24.0367L16.5972 5.5258L20.6741 1.45341C22.5164 -0.386772 25.5033 -0.386775 27.3455 1.45341L42.5415 16.6323L35.1286 24.0367Z" fill="#FFF85E"></path>
        <path d="M24.0099 35.143L42.5416 16.6323L46.6183 20.7046C48.4606 22.5448 48.4606 25.5284 46.6183 27.3686L31.4224 42.5476L24.0099 35.143Z" fill="#76FF54"></path>
        <path d="M27.3454 46.6198C25.5032 48.4601 22.5163 48.4601 20.674 46.6198L5.47815 31.4409L12.8908 24.0366L31.4223 42.5476L27.3454 46.6198Z" fill="#5C94FF"></path>
    </svg>